<mxfile host="Electron" agent="Mozilla/5.0 (Windows NT 10.0; Win64; x64) AppleWebKit/537.36 (KHTML, like Gecko) draw.io/27.0.9 Chrome/134.0.6998.205 Electron/35.4.0 Safari/537.36" version="27.0.9">
  <diagram name="หน้า-1" id="5DkNMyz6z9ArDThdyfq8">
    <mxGraphModel dx="2180" dy="1473" grid="1" gridSize="10" guides="1" tooltips="1" connect="1" arrows="1" fold="1" page="1" pageScale="1" pageWidth="827" pageHeight="1169" math="0" shadow="0">
      <root>
        <mxCell id="0" />
        <mxCell id="1" parent="0" />
        <mxCell id="Ird8jKPg570nLNMJRw_x-3" value="" style="edgeStyle=orthogonalEdgeStyle;rounded=0;orthogonalLoop=1;jettySize=auto;html=1;" parent="1" source="Ird8jKPg570nLNMJRw_x-1" target="Ird8jKPg570nLNMJRw_x-2" edge="1">
          <mxGeometry relative="1" as="geometry" />
        </mxCell>
        <mxCell id="Ird8jKPg570nLNMJRw_x-1" value="start" style="ellipse;whiteSpace=wrap;html=1;" parent="1" vertex="1">
          <mxGeometry x="290" y="40" width="140" height="70" as="geometry" />
        </mxCell>
        <mxCell id="Ird8jKPg570nLNMJRw_x-5" value="" style="edgeStyle=orthogonalEdgeStyle;rounded=0;orthogonalLoop=1;jettySize=auto;html=1;" parent="1" source="Ird8jKPg570nLNMJRw_x-2" target="Ird8jKPg570nLNMJRw_x-4" edge="1">
          <mxGeometry relative="1" as="geometry" />
        </mxCell>
        <mxCell id="Ird8jKPg570nLNMJRw_x-2" value="condition = true" style="whiteSpace=wrap;html=1;" parent="1" vertex="1">
          <mxGeometry x="300" y="140" width="120" height="60" as="geometry" />
        </mxCell>
        <mxCell id="BklmUbB21pq4jj8lP8_X-59" style="edgeStyle=orthogonalEdgeStyle;rounded=0;orthogonalLoop=1;jettySize=auto;html=1;exitX=0.5;exitY=1;exitDx=0;exitDy=0;entryX=0.5;entryY=0;entryDx=0;entryDy=0;" parent="1" source="Ird8jKPg570nLNMJRw_x-4" target="BklmUbB21pq4jj8lP8_X-58" edge="1">
          <mxGeometry relative="1" as="geometry" />
        </mxCell>
        <mxCell id="Ird8jKPg570nLNMJRw_x-4" value="condition" style="rhombus;whiteSpace=wrap;html=1;" parent="1" vertex="1">
          <mxGeometry x="285" y="240" width="150" height="80" as="geometry" />
        </mxCell>
        <mxCell id="Ird8jKPg570nLNMJRw_x-7" value="" style="endArrow=none;html=1;rounded=0;exitX=1;exitY=0.5;exitDx=0;exitDy=0;" parent="1" source="Ird8jKPg570nLNMJRw_x-4" edge="1">
          <mxGeometry width="50" height="50" relative="1" as="geometry">
            <mxPoint x="460" y="290" as="sourcePoint" />
            <mxPoint x="1562.5" y="280" as="targetPoint" />
          </mxGeometry>
        </mxCell>
        <mxCell id="Ird8jKPg570nLNMJRw_x-11" value="" style="edgeStyle=orthogonalEdgeStyle;rounded=0;orthogonalLoop=1;jettySize=auto;html=1;" parent="1" source="Ird8jKPg570nLNMJRw_x-20" target="Ird8jKPg570nLNMJRw_x-10" edge="1">
          <mxGeometry relative="1" as="geometry" />
        </mxCell>
        <mxCell id="Ird8jKPg570nLNMJRw_x-8" value="you want to play" style="shape=parallelogram;perimeter=parallelogramPerimeter;whiteSpace=wrap;html=1;fixedSize=1;" parent="1" vertex="1">
          <mxGeometry x="300" y="510" width="120" height="60" as="geometry" />
        </mxCell>
        <mxCell id="Ird8jKPg570nLNMJRw_x-16" style="edgeStyle=orthogonalEdgeStyle;rounded=0;orthogonalLoop=1;jettySize=auto;html=1;exitX=0.5;exitY=1;exitDx=0;exitDy=0;" parent="1" source="Ird8jKPg570nLNMJRw_x-10" target="Ird8jKPg570nLNMJRw_x-12" edge="1">
          <mxGeometry relative="1" as="geometry" />
        </mxCell>
        <mxCell id="Ird8jKPg570nLNMJRw_x-10" value="รับค่าตัวเลข" style="shape=parallelogram;perimeter=parallelogramPerimeter;whiteSpace=wrap;html=1;fixedSize=1;" parent="1" vertex="1">
          <mxGeometry x="300" y="620" width="120" height="60" as="geometry" />
        </mxCell>
        <mxCell id="Ird8jKPg570nLNMJRw_x-14" value="" style="edgeStyle=orthogonalEdgeStyle;rounded=0;orthogonalLoop=1;jettySize=auto;html=1;" parent="1" source="Ird8jKPg570nLNMJRw_x-12" target="Ird8jKPg570nLNMJRw_x-13" edge="1">
          <mxGeometry relative="1" as="geometry" />
        </mxCell>
        <mxCell id="Ird8jKPg570nLNMJRw_x-12" value="ถ้าตอบตัวอักษร" style="rhombus;whiteSpace=wrap;html=1;" parent="1" vertex="1">
          <mxGeometry x="285" y="710" width="150" height="80" as="geometry" />
        </mxCell>
        <mxCell id="Ird8jKPg570nLNMJRw_x-13" value="โปรดป้อนตัวเลข 1 /-1" style="shape=parallelogram;perimeter=parallelogramPerimeter;whiteSpace=wrap;html=1;fixedSize=1;" parent="1" vertex="1">
          <mxGeometry x="270" y="820" width="180" height="60" as="geometry" />
        </mxCell>
        <mxCell id="Ird8jKPg570nLNMJRw_x-15" value="" style="endArrow=none;html=1;rounded=0;entryX=0.5;entryY=1;entryDx=0;entryDy=0;" parent="1" target="Ird8jKPg570nLNMJRw_x-13" edge="1">
          <mxGeometry width="50" height="50" relative="1" as="geometry">
            <mxPoint x="360" y="910" as="sourcePoint" />
            <mxPoint x="390" y="860" as="targetPoint" />
          </mxGeometry>
        </mxCell>
        <mxCell id="Ird8jKPg570nLNMJRw_x-18" value="" style="endArrow=none;html=1;rounded=0;" parent="1" edge="1">
          <mxGeometry width="50" height="50" relative="1" as="geometry">
            <mxPoint x="210" y="1140" as="sourcePoint" />
            <mxPoint x="210" y="590" as="targetPoint" />
          </mxGeometry>
        </mxCell>
        <mxCell id="Ird8jKPg570nLNMJRw_x-19" value="" style="endArrow=classic;html=1;rounded=0;" parent="1" edge="1">
          <mxGeometry width="50" height="50" relative="1" as="geometry">
            <mxPoint x="210" y="590" as="sourcePoint" />
            <mxPoint x="340" y="590" as="targetPoint" />
          </mxGeometry>
        </mxCell>
        <mxCell id="Ird8jKPg570nLNMJRw_x-21" value="" style="edgeStyle=orthogonalEdgeStyle;rounded=0;orthogonalLoop=1;jettySize=auto;html=1;" parent="1" source="Ird8jKPg570nLNMJRw_x-8" target="Ird8jKPg570nLNMJRw_x-20" edge="1">
          <mxGeometry relative="1" as="geometry">
            <mxPoint x="360" y="570" as="sourcePoint" />
            <mxPoint x="360" y="620" as="targetPoint" />
          </mxGeometry>
        </mxCell>
        <mxCell id="Ird8jKPg570nLNMJRw_x-20" value="" style="ellipse;whiteSpace=wrap;html=1;aspect=fixed;" parent="1" vertex="1">
          <mxGeometry x="350" y="580" width="20" height="20" as="geometry" />
        </mxCell>
        <mxCell id="Ird8jKPg570nLNMJRw_x-23" value="" style="endArrow=none;html=1;rounded=0;exitX=1;exitY=0.5;exitDx=0;exitDy=0;" parent="1" source="Ird8jKPg570nLNMJRw_x-12" edge="1">
          <mxGeometry width="50" height="50" relative="1" as="geometry">
            <mxPoint x="480" y="775" as="sourcePoint" />
            <mxPoint x="630" y="750" as="targetPoint" />
          </mxGeometry>
        </mxCell>
        <mxCell id="BklmUbB21pq4jj8lP8_X-77" style="edgeStyle=orthogonalEdgeStyle;rounded=0;orthogonalLoop=1;jettySize=auto;html=1;exitX=1;exitY=0.5;exitDx=0;exitDy=0;entryX=0;entryY=0.5;entryDx=0;entryDy=0;" parent="1" source="Ird8jKPg570nLNMJRw_x-24" target="Ird8jKPg570nLNMJRw_x-34" edge="1">
          <mxGeometry relative="1" as="geometry" />
        </mxCell>
        <mxCell id="Ird8jKPg570nLNMJRw_x-24" value="ถ้าไมาใช่ตัวเลข" style="rhombus;whiteSpace=wrap;html=1;" parent="1" vertex="1">
          <mxGeometry x="285" y="900" width="150" height="80" as="geometry" />
        </mxCell>
        <mxCell id="Ird8jKPg570nLNMJRw_x-26" value="" style="endArrow=none;html=1;rounded=0;entryX=0.5;entryY=1;entryDx=0;entryDy=0;" parent="1" target="Ird8jKPg570nLNMJRw_x-24" edge="1">
          <mxGeometry width="50" height="50" relative="1" as="geometry">
            <mxPoint x="360" y="1030" as="sourcePoint" />
            <mxPoint x="380" y="990" as="targetPoint" />
          </mxGeometry>
        </mxCell>
        <mxCell id="Ird8jKPg570nLNMJRw_x-28" value="กรุณาตอบตัวเลข" style="shape=parallelogram;perimeter=parallelogramPerimeter;whiteSpace=wrap;html=1;fixedSize=1;" parent="1" vertex="1">
          <mxGeometry x="300" y="1030" width="120" height="60" as="geometry" />
        </mxCell>
        <mxCell id="Ird8jKPg570nLNMJRw_x-29" value="" style="endArrow=none;html=1;rounded=0;entryX=0.5;entryY=1;entryDx=0;entryDy=0;" parent="1" target="Ird8jKPg570nLNMJRw_x-28" edge="1">
          <mxGeometry width="50" height="50" relative="1" as="geometry">
            <mxPoint x="360" y="1140" as="sourcePoint" />
            <mxPoint x="380" y="1160" as="targetPoint" />
          </mxGeometry>
        </mxCell>
        <mxCell id="Ird8jKPg570nLNMJRw_x-30" value="" style="endArrow=none;html=1;rounded=0;" parent="1" edge="1">
          <mxGeometry width="50" height="50" relative="1" as="geometry">
            <mxPoint x="210" y="1140" as="sourcePoint" />
            <mxPoint x="360" y="1140" as="targetPoint" />
          </mxGeometry>
        </mxCell>
        <mxCell id="Ird8jKPg570nLNMJRw_x-35" style="edgeStyle=orthogonalEdgeStyle;rounded=0;orthogonalLoop=1;jettySize=auto;html=1;exitX=0.5;exitY=1;exitDx=0;exitDy=0;entryX=0.5;entryY=0;entryDx=0;entryDy=0;" parent="1" source="Ird8jKPg570nLNMJRw_x-32" target="Ird8jKPg570nLNMJRw_x-36" edge="1">
          <mxGeometry relative="1" as="geometry">
            <mxPoint x="635.3529411764707" y="1150" as="targetPoint" />
          </mxGeometry>
        </mxCell>
        <mxCell id="Ird8jKPg570nLNMJRw_x-32" value="ถ้าตอบ 1" style="rhombus;whiteSpace=wrap;html=1;" parent="1" vertex="1">
          <mxGeometry x="560" y="1020" width="150" height="80" as="geometry" />
        </mxCell>
        <mxCell id="BklmUbB21pq4jj8lP8_X-78" style="edgeStyle=orthogonalEdgeStyle;rounded=0;orthogonalLoop=1;jettySize=auto;html=1;exitX=0.5;exitY=1;exitDx=0;exitDy=0;entryX=0.5;entryY=0;entryDx=0;entryDy=0;" parent="1" source="Ird8jKPg570nLNMJRw_x-34" target="Ird8jKPg570nLNMJRw_x-32" edge="1">
          <mxGeometry relative="1" as="geometry" />
        </mxCell>
        <mxCell id="Ird8jKPg570nLNMJRw_x-34" value="" style="ellipse;whiteSpace=wrap;html=1;aspect=fixed;" parent="1" vertex="1">
          <mxGeometry x="620" y="925" width="30" height="30" as="geometry" />
        </mxCell>
        <mxCell id="Ird8jKPg570nLNMJRw_x-38" style="edgeStyle=orthogonalEdgeStyle;rounded=0;orthogonalLoop=1;jettySize=auto;html=1;exitX=0.5;exitY=1;exitDx=0;exitDy=0;" parent="1" source="Ird8jKPg570nLNMJRw_x-36" edge="1">
          <mxGeometry relative="1" as="geometry">
            <mxPoint x="634.6923076923076" y="1240" as="targetPoint" />
          </mxGeometry>
        </mxCell>
        <mxCell id="Ird8jKPg570nLNMJRw_x-36" value="score = 100&lt;div&gt;max , min = 100 ,100&lt;/div&gt;" style="rounded=0;whiteSpace=wrap;html=1;" parent="1" vertex="1">
          <mxGeometry x="545" y="1130" width="180" height="70" as="geometry" />
        </mxCell>
        <mxCell id="Ird8jKPg570nLNMJRw_x-39" value="" style="endArrow=none;html=1;rounded=0;exitX=1;exitY=0.5;exitDx=0;exitDy=0;" parent="1" source="Ird8jKPg570nLNMJRw_x-32" edge="1">
          <mxGeometry width="50" height="50" relative="1" as="geometry">
            <mxPoint x="740" y="1040" as="sourcePoint" />
            <mxPoint x="880" y="1060" as="targetPoint" />
          </mxGeometry>
        </mxCell>
        <mxCell id="Ird8jKPg570nLNMJRw_x-42" style="edgeStyle=orthogonalEdgeStyle;rounded=0;orthogonalLoop=1;jettySize=auto;html=1;exitX=0.5;exitY=1;exitDx=0;exitDy=0;" parent="1" source="Ird8jKPg570nLNMJRw_x-40" edge="1">
          <mxGeometry relative="1" as="geometry">
            <mxPoint x="880" y="1240" as="targetPoint" />
          </mxGeometry>
        </mxCell>
        <mxCell id="Ird8jKPg570nLNMJRw_x-40" value="ถ้าตอบ -1" style="rhombus;whiteSpace=wrap;html=1;" parent="1" vertex="1">
          <mxGeometry x="805" y="1100" width="150" height="80" as="geometry" />
        </mxCell>
        <mxCell id="Ird8jKPg570nLNMJRw_x-41" value="" style="endArrow=classic;html=1;rounded=0;entryX=0.5;entryY=0;entryDx=0;entryDy=0;" parent="1" target="Ird8jKPg570nLNMJRw_x-40" edge="1">
          <mxGeometry width="50" height="50" relative="1" as="geometry">
            <mxPoint x="880" y="1060" as="sourcePoint" />
            <mxPoint x="960" y="1030" as="targetPoint" />
          </mxGeometry>
        </mxCell>
        <mxCell id="Ird8jKPg570nLNMJRw_x-44" style="edgeStyle=orthogonalEdgeStyle;rounded=0;orthogonalLoop=1;jettySize=auto;html=1;exitX=0.5;exitY=1;exitDx=0;exitDy=0;" parent="1" source="Ird8jKPg570nLNMJRw_x-43" edge="1">
          <mxGeometry relative="1" as="geometry">
            <mxPoint x="879.9473684210527" y="1350" as="targetPoint" />
          </mxGeometry>
        </mxCell>
        <mxCell id="Ird8jKPg570nLNMJRw_x-43" value="Exit to game" style="shape=parallelogram;perimeter=parallelogramPerimeter;whiteSpace=wrap;html=1;fixedSize=1;" parent="1" vertex="1">
          <mxGeometry x="778.5" y="1240" width="203" height="60" as="geometry" />
        </mxCell>
        <mxCell id="Ird8jKPg570nLNMJRw_x-45" value="condition = false" style="rounded=0;whiteSpace=wrap;html=1;" parent="1" vertex="1">
          <mxGeometry x="820" y="1350" width="120" height="60" as="geometry" />
        </mxCell>
        <mxCell id="Ird8jKPg570nLNMJRw_x-46" value="" style="endArrow=none;html=1;rounded=0;exitX=1;exitY=0.5;exitDx=0;exitDy=0;" parent="1" source="Ird8jKPg570nLNMJRw_x-40" edge="1">
          <mxGeometry width="50" height="50" relative="1" as="geometry">
            <mxPoint x="1010" y="1165" as="sourcePoint" />
            <mxPoint x="1190" y="1140" as="targetPoint" />
          </mxGeometry>
        </mxCell>
        <mxCell id="Ird8jKPg570nLNMJRw_x-47" value="" style="endArrow=classic;html=1;rounded=0;" parent="1" edge="1">
          <mxGeometry width="50" height="50" relative="1" as="geometry">
            <mxPoint x="1190" y="1140" as="sourcePoint" />
            <mxPoint x="1190" y="1250" as="targetPoint" />
          </mxGeometry>
        </mxCell>
        <mxCell id="Ird8jKPg570nLNMJRw_x-50" value="" style="edgeStyle=orthogonalEdgeStyle;rounded=0;orthogonalLoop=1;jettySize=auto;html=1;" parent="1" source="Ird8jKPg570nLNMJRw_x-48" target="Ird8jKPg570nLNMJRw_x-49" edge="1">
          <mxGeometry relative="1" as="geometry" />
        </mxCell>
        <mxCell id="Ird8jKPg570nLNMJRw_x-48" value="กรุณากรอกตัวเลข 1 || -1 เท่านั้น" style="shape=parallelogram;perimeter=parallelogramPerimeter;whiteSpace=wrap;html=1;fixedSize=1;" parent="1" vertex="1">
          <mxGeometry x="1070" y="1249" width="250" height="60" as="geometry" />
        </mxCell>
        <mxCell id="BklmUbB21pq4jj8lP8_X-68" style="edgeStyle=orthogonalEdgeStyle;rounded=0;orthogonalLoop=1;jettySize=auto;html=1;exitX=0.5;exitY=1;exitDx=0;exitDy=0;" parent="1" source="Ird8jKPg570nLNMJRw_x-49" edge="1">
          <mxGeometry relative="1" as="geometry">
            <mxPoint x="1194.6923076923076" y="1670" as="targetPoint" />
          </mxGeometry>
        </mxCell>
        <mxCell id="Ird8jKPg570nLNMJRw_x-49" value="condition = true" style="whiteSpace=wrap;html=1;" parent="1" vertex="1">
          <mxGeometry x="1135" y="1389" width="120" height="60" as="geometry" />
        </mxCell>
        <mxCell id="BklmUbB21pq4jj8lP8_X-23" style="edgeStyle=orthogonalEdgeStyle;rounded=0;orthogonalLoop=1;jettySize=auto;html=1;exitX=0.5;exitY=1;exitDx=0;exitDy=0;entryX=0.5;entryY=0;entryDx=0;entryDy=0;" parent="1" source="Ird8jKPg570nLNMJRw_x-52" target="BklmUbB21pq4jj8lP8_X-22" edge="1">
          <mxGeometry relative="1" as="geometry" />
        </mxCell>
        <mxCell id="Ird8jKPg570nLNMJRw_x-52" value="มาทายตัวเลขกัน" style="shape=parallelogram;perimeter=parallelogramPerimeter;whiteSpace=wrap;html=1;fixedSize=1;" parent="1" vertex="1">
          <mxGeometry x="535" y="1240" width="200" height="60" as="geometry" />
        </mxCell>
        <mxCell id="Ird8jKPg570nLNMJRw_x-61" style="edgeStyle=orthogonalEdgeStyle;rounded=0;orthogonalLoop=1;jettySize=auto;html=1;exitX=0.5;exitY=1;exitDx=0;exitDy=0;" parent="1" source="Ird8jKPg570nLNMJRw_x-53" edge="1">
          <mxGeometry relative="1" as="geometry">
            <mxPoint x="634.9950000000001" y="1780" as="targetPoint" />
          </mxGeometry>
        </mxCell>
        <mxCell id="Ird8jKPg570nLNMJRw_x-53" value="กรอกตัวเลข" style="shape=parallelogram;perimeter=parallelogramPerimeter;whiteSpace=wrap;html=1;fixedSize=1;" parent="1" vertex="1">
          <mxGeometry x="535" y="1610" width="200" height="60" as="geometry" />
        </mxCell>
        <mxCell id="Ird8jKPg570nLNMJRw_x-59" style="edgeStyle=orthogonalEdgeStyle;rounded=0;orthogonalLoop=1;jettySize=auto;html=1;exitX=0.5;exitY=1;exitDx=0;exitDy=0;entryX=0.5;entryY=0;entryDx=0;entryDy=0;" parent="1" source="Ird8jKPg570nLNMJRw_x-55" target="Ird8jKPg570nLNMJRw_x-53" edge="1">
          <mxGeometry relative="1" as="geometry" />
        </mxCell>
        <mxCell id="Ird8jKPg570nLNMJRw_x-55" value="ถ้า ตัวเลขที่กรอก ไม่เท่ากับตัวเลขที่สุ่ม" style="rhombus;whiteSpace=wrap;html=1;" parent="1" vertex="1">
          <mxGeometry x="535" y="1440" width="200" height="120" as="geometry" />
        </mxCell>
        <mxCell id="Ird8jKPg570nLNMJRw_x-68" style="edgeStyle=orthogonalEdgeStyle;rounded=0;orthogonalLoop=1;jettySize=auto;html=1;exitX=0.5;exitY=1;exitDx=0;exitDy=0;" parent="1" source="Ird8jKPg570nLNMJRw_x-67" edge="1">
          <mxGeometry relative="1" as="geometry">
            <mxPoint x="635" y="1880" as="targetPoint" />
          </mxGeometry>
        </mxCell>
        <mxCell id="Ird8jKPg570nLNMJRw_x-67" value="ถ้า score&amp;nbsp; ไม่เท่ากับ 0" style="rhombus;whiteSpace=wrap;html=1;" parent="1" vertex="1">
          <mxGeometry x="552.5" y="1710" width="165" height="120" as="geometry" />
        </mxCell>
        <mxCell id="Ird8jKPg570nLNMJRw_x-75" value="" style="edgeStyle=orthogonalEdgeStyle;rounded=0;orthogonalLoop=1;jettySize=auto;html=1;" parent="1" source="Ird8jKPg570nLNMJRw_x-73" target="Ird8jKPg570nLNMJRw_x-74" edge="1">
          <mxGeometry relative="1" as="geometry" />
        </mxCell>
        <mxCell id="Ird8jKPg570nLNMJRw_x-73" value="ถ้า ตัวเลข มากกว่า&lt;div&gt;&amp;nbsp;ตัวเลขที่สุ่ม&lt;/div&gt;" style="rhombus;whiteSpace=wrap;html=1;" parent="1" vertex="1">
          <mxGeometry x="560" y="1880" width="150" height="80" as="geometry" />
        </mxCell>
        <mxCell id="BklmUbB21pq4jj8lP8_X-2" value="" style="edgeStyle=orthogonalEdgeStyle;rounded=0;orthogonalLoop=1;jettySize=auto;html=1;" parent="1" source="Ird8jKPg570nLNMJRw_x-74" target="BklmUbB21pq4jj8lP8_X-1" edge="1">
          <mxGeometry relative="1" as="geometry" />
        </mxCell>
        <mxCell id="Ird8jKPg570nLNMJRw_x-74" value="score&amp;nbsp; -10&lt;div&gt;max = ตัวเลขที่กรอกมา -1&lt;/div&gt;" style="whiteSpace=wrap;html=1;" parent="1" vertex="1">
          <mxGeometry x="550" y="1990" width="170" height="60" as="geometry" />
        </mxCell>
        <mxCell id="BklmUbB21pq4jj8lP8_X-5" value="" style="edgeStyle=orthogonalEdgeStyle;rounded=0;orthogonalLoop=1;jettySize=auto;html=1;" parent="1" source="BklmUbB21pq4jj8lP8_X-1" target="BklmUbB21pq4jj8lP8_X-4" edge="1">
          <mxGeometry relative="1" as="geometry" />
        </mxCell>
        <mxCell id="BklmUbB21pq4jj8lP8_X-1" value="ตัวเลขของคุณมากไป&amp;nbsp;&lt;div&gt;(แสดง ตัวเลขที่ทาย กับ score)&lt;/div&gt;" style="shape=parallelogram;perimeter=parallelogramPerimeter;whiteSpace=wrap;html=1;fixedSize=1;" parent="1" vertex="1">
          <mxGeometry x="545" y="2080" width="180" height="60" as="geometry" />
        </mxCell>
        <mxCell id="BklmUbB21pq4jj8lP8_X-17" style="edgeStyle=orthogonalEdgeStyle;rounded=0;orthogonalLoop=1;jettySize=auto;html=1;exitX=0.5;exitY=1;exitDx=0;exitDy=0;" parent="1" source="BklmUbB21pq4jj8lP8_X-4" edge="1">
          <mxGeometry relative="1" as="geometry">
            <mxPoint x="635.047619047619" y="2470" as="targetPoint" />
          </mxGeometry>
        </mxCell>
        <mxCell id="BklmUbB21pq4jj8lP8_X-4" value="แสดง ค่า min - max" style="shape=parallelogram;perimeter=parallelogramPerimeter;whiteSpace=wrap;html=1;fixedSize=1;" parent="1" vertex="1">
          <mxGeometry x="545" y="2170" width="180" height="60" as="geometry" />
        </mxCell>
        <mxCell id="BklmUbB21pq4jj8lP8_X-6" value="" style="edgeStyle=orthogonalEdgeStyle;rounded=0;orthogonalLoop=1;jettySize=auto;html=1;" parent="1" source="BklmUbB21pq4jj8lP8_X-7" target="BklmUbB21pq4jj8lP8_X-9" edge="1">
          <mxGeometry relative="1" as="geometry" />
        </mxCell>
        <mxCell id="BklmUbB21pq4jj8lP8_X-7" value="ถ้า ตัวเลข น้อยกว่า&lt;div&gt;&amp;nbsp;ตัวเลขที่สุ่ม&lt;/div&gt;" style="rhombus;whiteSpace=wrap;html=1;" parent="1" vertex="1">
          <mxGeometry x="793.5" y="2020" width="150" height="80" as="geometry" />
        </mxCell>
        <mxCell id="BklmUbB21pq4jj8lP8_X-8" value="" style="edgeStyle=orthogonalEdgeStyle;rounded=0;orthogonalLoop=1;jettySize=auto;html=1;" parent="1" source="BklmUbB21pq4jj8lP8_X-9" target="BklmUbB21pq4jj8lP8_X-11" edge="1">
          <mxGeometry relative="1" as="geometry" />
        </mxCell>
        <mxCell id="BklmUbB21pq4jj8lP8_X-9" value="score&amp;nbsp; -10&lt;div&gt;min = ตัวเลขที่กรอกมา -1&lt;/div&gt;" style="whiteSpace=wrap;html=1;" parent="1" vertex="1">
          <mxGeometry x="783.5" y="2130" width="170" height="60" as="geometry" />
        </mxCell>
        <mxCell id="BklmUbB21pq4jj8lP8_X-10" value="" style="edgeStyle=orthogonalEdgeStyle;rounded=0;orthogonalLoop=1;jettySize=auto;html=1;" parent="1" source="BklmUbB21pq4jj8lP8_X-11" target="BklmUbB21pq4jj8lP8_X-12" edge="1">
          <mxGeometry relative="1" as="geometry" />
        </mxCell>
        <mxCell id="BklmUbB21pq4jj8lP8_X-11" value="ตัวเลขของคุณน้อยไป&amp;nbsp;&lt;div&gt;(แสดง ตัวเลขที่ทาย กับ score)&lt;/div&gt;" style="shape=parallelogram;perimeter=parallelogramPerimeter;whiteSpace=wrap;html=1;fixedSize=1;" parent="1" vertex="1">
          <mxGeometry x="778.5" y="2220" width="180" height="60" as="geometry" />
        </mxCell>
        <mxCell id="0oQbfdD1zlZAHQCakIF--7" style="edgeStyle=none;curved=1;rounded=0;orthogonalLoop=1;jettySize=auto;html=1;exitX=0.5;exitY=1;exitDx=0;exitDy=0;fontSize=12;startSize=8;endSize=8;" edge="1" parent="1" source="BklmUbB21pq4jj8lP8_X-12" target="0oQbfdD1zlZAHQCakIF--9">
          <mxGeometry relative="1" as="geometry">
            <mxPoint x="870" y="2410" as="targetPoint" />
          </mxGeometry>
        </mxCell>
        <mxCell id="BklmUbB21pq4jj8lP8_X-12" value="แสดง ค่า min - max" style="shape=parallelogram;perimeter=parallelogramPerimeter;whiteSpace=wrap;html=1;fixedSize=1;" parent="1" vertex="1">
          <mxGeometry x="778.5" y="2310" width="180" height="60" as="geometry" />
        </mxCell>
        <mxCell id="BklmUbB21pq4jj8lP8_X-13" value="" style="endArrow=classic;html=1;rounded=0;entryX=0.5;entryY=0;entryDx=0;entryDy=0;" parent="1" target="BklmUbB21pq4jj8lP8_X-7" edge="1">
          <mxGeometry width="50" height="50" relative="1" as="geometry">
            <mxPoint x="869" y="1920" as="sourcePoint" />
            <mxPoint x="953.5" y="1970" as="targetPoint" />
          </mxGeometry>
        </mxCell>
        <mxCell id="BklmUbB21pq4jj8lP8_X-15" value="" style="endArrow=none;html=1;rounded=0;exitX=1;exitY=0.5;exitDx=0;exitDy=0;" parent="1" source="Ird8jKPg570nLNMJRw_x-73" edge="1">
          <mxGeometry width="50" height="50" relative="1" as="geometry">
            <mxPoint x="777" y="1930" as="sourcePoint" />
            <mxPoint x="870" y="1920" as="targetPoint" />
          </mxGeometry>
        </mxCell>
        <mxCell id="BklmUbB21pq4jj8lP8_X-19" value="" style="ellipse;whiteSpace=wrap;html=1;aspect=fixed;" parent="1" vertex="1">
          <mxGeometry x="620" y="2470" width="30" height="30" as="geometry" />
        </mxCell>
        <mxCell id="BklmUbB21pq4jj8lP8_X-21" value="" style="endArrow=classic;html=1;rounded=0;entryX=1;entryY=0.5;entryDx=0;entryDy=0;" parent="1" target="BklmUbB21pq4jj8lP8_X-19" edge="1">
          <mxGeometry width="50" height="50" relative="1" as="geometry">
            <mxPoint x="870" y="2485" as="sourcePoint" />
            <mxPoint x="850" y="2420" as="targetPoint" />
          </mxGeometry>
        </mxCell>
        <mxCell id="BklmUbB21pq4jj8lP8_X-24" style="edgeStyle=orthogonalEdgeStyle;rounded=0;orthogonalLoop=1;jettySize=auto;html=1;exitX=0.5;exitY=1;exitDx=0;exitDy=0;entryX=0.5;entryY=0;entryDx=0;entryDy=0;" parent="1" source="BklmUbB21pq4jj8lP8_X-22" target="Ird8jKPg570nLNMJRw_x-55" edge="1">
          <mxGeometry relative="1" as="geometry" />
        </mxCell>
        <mxCell id="BklmUbB21pq4jj8lP8_X-22" value="" style="ellipse;whiteSpace=wrap;html=1;aspect=fixed;" parent="1" vertex="1">
          <mxGeometry x="620" y="1365" width="30" height="30" as="geometry" />
        </mxCell>
        <mxCell id="BklmUbB21pq4jj8lP8_X-26" value="" style="endArrow=none;html=1;rounded=0;entryX=0;entryY=0.5;entryDx=0;entryDy=0;" parent="1" target="BklmUbB21pq4jj8lP8_X-19" edge="1">
          <mxGeometry width="50" height="50" relative="1" as="geometry">
            <mxPoint x="300" y="2485" as="sourcePoint" />
            <mxPoint x="530" y="2450" as="targetPoint" />
          </mxGeometry>
        </mxCell>
        <mxCell id="BklmUbB21pq4jj8lP8_X-28" value="" style="endArrow=none;html=1;rounded=0;" parent="1" edge="1">
          <mxGeometry width="50" height="50" relative="1" as="geometry">
            <mxPoint x="300" y="2480" as="sourcePoint" />
            <mxPoint x="310" y="1380" as="targetPoint" />
          </mxGeometry>
        </mxCell>
        <mxCell id="BklmUbB21pq4jj8lP8_X-29" value="" style="endArrow=classic;html=1;rounded=0;entryX=0;entryY=0.5;entryDx=0;entryDy=0;" parent="1" target="BklmUbB21pq4jj8lP8_X-22" edge="1">
          <mxGeometry width="50" height="50" relative="1" as="geometry">
            <mxPoint x="310" y="1380" as="sourcePoint" />
            <mxPoint x="500" y="1395" as="targetPoint" />
          </mxGeometry>
        </mxCell>
        <mxCell id="BklmUbB21pq4jj8lP8_X-30" value="" style="endArrow=none;html=1;rounded=0;exitX=1;exitY=0.5;exitDx=0;exitDy=0;" parent="1" source="Ird8jKPg570nLNMJRw_x-55" edge="1">
          <mxGeometry width="50" height="50" relative="1" as="geometry">
            <mxPoint x="760" y="1560" as="sourcePoint" />
            <mxPoint x="890" y="1500" as="targetPoint" />
            <Array as="points" />
          </mxGeometry>
        </mxCell>
        <mxCell id="BklmUbB21pq4jj8lP8_X-67" style="edgeStyle=orthogonalEdgeStyle;rounded=0;orthogonalLoop=1;jettySize=auto;html=1;exitX=0.5;exitY=1;exitDx=0;exitDy=0;entryX=0.5;entryY=0;entryDx=0;entryDy=0;" parent="1" source="BklmUbB21pq4jj8lP8_X-32" target="BklmUbB21pq4jj8lP8_X-65" edge="1">
          <mxGeometry relative="1" as="geometry" />
        </mxCell>
        <mxCell id="BklmUbB21pq4jj8lP8_X-32" value="แสดงคำตอบที่ถูก" style="shape=parallelogram;perimeter=parallelogramPerimeter;whiteSpace=wrap;html=1;fixedSize=1;" parent="1" vertex="1">
          <mxGeometry x="829.5" y="1550" width="120" height="60" as="geometry" />
        </mxCell>
        <mxCell id="BklmUbB21pq4jj8lP8_X-42" value="" style="endArrow=none;html=1;rounded=0;exitX=1;exitY=0.5;exitDx=0;exitDy=0;" parent="1" source="Ird8jKPg570nLNMJRw_x-67" edge="1">
          <mxGeometry width="50" height="50" relative="1" as="geometry">
            <mxPoint x="843.5" y="1779" as="sourcePoint" />
            <mxPoint x="1030" y="1770" as="targetPoint" />
          </mxGeometry>
        </mxCell>
        <mxCell id="BklmUbB21pq4jj8lP8_X-46" value="" style="edgeStyle=orthogonalEdgeStyle;rounded=0;orthogonalLoop=1;jettySize=auto;html=1;" parent="1" source="BklmUbB21pq4jj8lP8_X-44" target="BklmUbB21pq4jj8lP8_X-45" edge="1">
          <mxGeometry relative="1" as="geometry" />
        </mxCell>
        <mxCell id="BklmUbB21pq4jj8lP8_X-44" value="ถ้า score&amp;nbsp; เท่ากับ 0" style="rhombus;whiteSpace=wrap;html=1;" parent="1" vertex="1">
          <mxGeometry x="1030" y="1710" width="165" height="120" as="geometry" />
        </mxCell>
        <mxCell id="BklmUbB21pq4jj8lP8_X-48" value="" style="edgeStyle=orthogonalEdgeStyle;rounded=0;orthogonalLoop=1;jettySize=auto;html=1;" parent="1" source="BklmUbB21pq4jj8lP8_X-45" target="BklmUbB21pq4jj8lP8_X-47" edge="1">
          <mxGeometry relative="1" as="geometry" />
        </mxCell>
        <mxCell id="BklmUbB21pq4jj8lP8_X-45" value="game over" style="shape=parallelogram;perimeter=parallelogramPerimeter;whiteSpace=wrap;html=1;fixedSize=1;" parent="1" vertex="1">
          <mxGeometry x="1052.5" y="1860" width="120" height="60" as="geometry" />
        </mxCell>
        <mxCell id="BklmUbB21pq4jj8lP8_X-54" style="edgeStyle=orthogonalEdgeStyle;rounded=0;orthogonalLoop=1;jettySize=auto;html=1;exitX=0.5;exitY=1;exitDx=0;exitDy=0;entryX=0.5;entryY=0;entryDx=0;entryDy=0;" parent="1" source="BklmUbB21pq4jj8lP8_X-98" target="BklmUbB21pq4jj8lP8_X-55" edge="1">
          <mxGeometry relative="1" as="geometry">
            <mxPoint x="1113" y="2690" as="targetPoint" />
          </mxGeometry>
        </mxCell>
        <mxCell id="BklmUbB21pq4jj8lP8_X-47" value="break ;" style="whiteSpace=wrap;html=1;" parent="1" vertex="1">
          <mxGeometry x="1052.5" y="1960" width="120" height="60" as="geometry" />
        </mxCell>
        <mxCell id="BklmUbB21pq4jj8lP8_X-50" value="" style="endArrow=classic;html=1;rounded=0;entryX=0.5;entryY=0;entryDx=0;entryDy=0;" parent="1" target="BklmUbB21pq4jj8lP8_X-32" edge="1">
          <mxGeometry width="50" height="50" relative="1" as="geometry">
            <mxPoint x="890" y="1500" as="sourcePoint" />
            <mxPoint x="1005" y="1490" as="targetPoint" />
          </mxGeometry>
        </mxCell>
        <mxCell id="BklmUbB21pq4jj8lP8_X-51" value="" style="endArrow=none;html=1;rounded=0;" parent="1" edge="1">
          <mxGeometry width="50" height="50" relative="1" as="geometry">
            <mxPoint x="1550" y="2840" as="sourcePoint" />
            <mxPoint x="1560" y="280" as="targetPoint" />
          </mxGeometry>
        </mxCell>
        <mxCell id="BklmUbB21pq4jj8lP8_X-53" value="" style="endArrow=none;html=1;rounded=0;" parent="1" edge="1">
          <mxGeometry width="50" height="50" relative="1" as="geometry">
            <mxPoint x="137.5" y="2730" as="sourcePoint" />
            <mxPoint x="1110" y="2730" as="targetPoint" />
          </mxGeometry>
        </mxCell>
        <mxCell id="BklmUbB21pq4jj8lP8_X-55" value="" style="ellipse;whiteSpace=wrap;html=1;aspect=fixed;" parent="1" vertex="1">
          <mxGeometry x="1097.5" y="2710" width="30" height="30" as="geometry" />
        </mxCell>
        <mxCell id="BklmUbB21pq4jj8lP8_X-57" value="" style="endArrow=none;html=1;rounded=0;" parent="1" edge="1">
          <mxGeometry width="50" height="50" relative="1" as="geometry">
            <mxPoint x="140" y="2730" as="sourcePoint" />
            <mxPoint x="140" y="360" as="targetPoint" />
          </mxGeometry>
        </mxCell>
        <mxCell id="BklmUbB21pq4jj8lP8_X-61" style="edgeStyle=orthogonalEdgeStyle;rounded=0;orthogonalLoop=1;jettySize=auto;html=1;exitX=0.5;exitY=1;exitDx=0;exitDy=0;" parent="1" source="BklmUbB21pq4jj8lP8_X-58" target="Ird8jKPg570nLNMJRw_x-8" edge="1">
          <mxGeometry relative="1" as="geometry">
            <mxPoint x="359.7142857142858" y="440" as="targetPoint" />
          </mxGeometry>
        </mxCell>
        <mxCell id="BklmUbB21pq4jj8lP8_X-58" value="" style="ellipse;whiteSpace=wrap;html=1;aspect=fixed;" parent="1" vertex="1">
          <mxGeometry x="345" y="350" width="30" height="30" as="geometry" />
        </mxCell>
        <mxCell id="BklmUbB21pq4jj8lP8_X-60" value="" style="endArrow=classic;html=1;rounded=0;entryX=0;entryY=0.5;entryDx=0;entryDy=0;" parent="1" target="BklmUbB21pq4jj8lP8_X-58" edge="1">
          <mxGeometry width="50" height="50" relative="1" as="geometry">
            <mxPoint x="140" y="365" as="sourcePoint" />
            <mxPoint x="285" y="330" as="targetPoint" />
          </mxGeometry>
        </mxCell>
        <mxCell id="BklmUbB21pq4jj8lP8_X-64" value="" style="endArrow=none;html=1;rounded=0;" parent="1" source="BklmUbB21pq4jj8lP8_X-69" edge="1">
          <mxGeometry width="50" height="50" relative="1" as="geometry">
            <mxPoint x="890" y="1680" as="sourcePoint" />
            <mxPoint x="1200" y="1680" as="targetPoint" />
          </mxGeometry>
        </mxCell>
        <mxCell id="BklmUbB21pq4jj8lP8_X-66" value="" style="endArrow=none;html=1;rounded=0;entryX=0.5;entryY=1;entryDx=0;entryDy=0;" parent="1" target="BklmUbB21pq4jj8lP8_X-65" edge="1">
          <mxGeometry width="50" height="50" relative="1" as="geometry">
            <mxPoint x="890" y="1680" as="sourcePoint" />
            <mxPoint x="890" y="1610" as="targetPoint" />
          </mxGeometry>
        </mxCell>
        <mxCell id="BklmUbB21pq4jj8lP8_X-65" value="" style="ellipse;whiteSpace=wrap;html=1;aspect=fixed;" parent="1" vertex="1">
          <mxGeometry x="879.5" y="1670" width="20" height="20" as="geometry" />
        </mxCell>
        <mxCell id="BklmUbB21pq4jj8lP8_X-70" value="" style="endArrow=none;html=1;rounded=0;" parent="1" target="BklmUbB21pq4jj8lP8_X-69" edge="1">
          <mxGeometry width="50" height="50" relative="1" as="geometry">
            <mxPoint x="890" y="1680" as="sourcePoint" />
            <mxPoint x="1200" y="1680" as="targetPoint" />
          </mxGeometry>
        </mxCell>
        <mxCell id="BklmUbB21pq4jj8lP8_X-69" value="" style="ellipse;whiteSpace=wrap;html=1;aspect=fixed;" parent="1" vertex="1">
          <mxGeometry x="1185" y="1670" width="20" height="20" as="geometry" />
        </mxCell>
        <mxCell id="BklmUbB21pq4jj8lP8_X-71" value="" style="endArrow=none;html=1;rounded=0;exitX=1;exitY=0.5;exitDx=0;exitDy=0;" parent="1" source="BklmUbB21pq4jj8lP8_X-69" edge="1">
          <mxGeometry width="50" height="50" relative="1" as="geometry">
            <mxPoint x="1220" y="1720" as="sourcePoint" />
            <mxPoint x="1280" y="1680" as="targetPoint" />
          </mxGeometry>
        </mxCell>
        <mxCell id="BklmUbB21pq4jj8lP8_X-72" value="" style="endArrow=none;html=1;rounded=0;" parent="1" edge="1">
          <mxGeometry width="50" height="50" relative="1" as="geometry">
            <mxPoint x="1280" y="2730" as="sourcePoint" />
            <mxPoint x="1280" y="1680" as="targetPoint" />
          </mxGeometry>
        </mxCell>
        <mxCell id="BklmUbB21pq4jj8lP8_X-73" value="" style="endArrow=classic;html=1;rounded=0;entryX=1;entryY=0.5;entryDx=0;entryDy=0;" parent="1" target="BklmUbB21pq4jj8lP8_X-55" edge="1">
          <mxGeometry width="50" height="50" relative="1" as="geometry">
            <mxPoint x="1280" y="2725" as="sourcePoint" />
            <mxPoint x="1240" y="2870" as="targetPoint" />
          </mxGeometry>
        </mxCell>
        <mxCell id="BklmUbB21pq4jj8lP8_X-74" value="end" style="ellipse;whiteSpace=wrap;html=1;" parent="1" vertex="1">
          <mxGeometry x="300" y="2922" width="120" height="80" as="geometry" />
        </mxCell>
        <mxCell id="BklmUbB21pq4jj8lP8_X-75" value="" style="endArrow=none;html=1;rounded=0;" parent="1" edge="1">
          <mxGeometry width="50" height="50" relative="1" as="geometry">
            <mxPoint x="360" y="2840" as="sourcePoint" />
            <mxPoint x="1550" y="2840" as="targetPoint" />
          </mxGeometry>
        </mxCell>
        <mxCell id="BklmUbB21pq4jj8lP8_X-76" value="" style="endArrow=classic;html=1;rounded=0;entryX=0.5;entryY=0;entryDx=0;entryDy=0;" parent="1" target="BklmUbB21pq4jj8lP8_X-74" edge="1">
          <mxGeometry width="50" height="50" relative="1" as="geometry">
            <mxPoint x="360" y="2840" as="sourcePoint" />
            <mxPoint x="360" y="2880" as="targetPoint" />
          </mxGeometry>
        </mxCell>
        <mxCell id="BklmUbB21pq4jj8lP8_X-79" value="" style="endArrow=classic;html=1;rounded=0;entryX=0.5;entryY=0;entryDx=0;entryDy=0;" parent="1" target="Ird8jKPg570nLNMJRw_x-34" edge="1">
          <mxGeometry width="50" height="50" relative="1" as="geometry">
            <mxPoint x="630" y="750" as="sourcePoint" />
            <mxPoint x="640" y="940" as="targetPoint" />
          </mxGeometry>
        </mxCell>
        <mxCell id="BklmUbB21pq4jj8lP8_X-80" value="&lt;b&gt;&lt;font style=&quot;color: rgb(0, 255, 0);&quot;&gt;true&lt;/font&gt;&lt;/b&gt;" style="text;html=1;align=center;verticalAlign=middle;resizable=0;points=[];autosize=1;strokeColor=none;fillColor=none;" parent="1" vertex="1">
          <mxGeometry x="300" y="980" width="50" height="30" as="geometry" />
        </mxCell>
        <mxCell id="BklmUbB21pq4jj8lP8_X-81" value="&lt;b&gt;&lt;font style=&quot;color: rgb(255, 0, 0);&quot;&gt;false&lt;/font&gt;&lt;/b&gt;" style="text;html=1;align=center;verticalAlign=middle;resizable=0;points=[];autosize=1;strokeColor=none;fillColor=none;" parent="1" vertex="1">
          <mxGeometry x="425" y="908" width="50" height="30" as="geometry" />
        </mxCell>
        <mxCell id="BklmUbB21pq4jj8lP8_X-82" value="&lt;b&gt;&lt;font style=&quot;color: rgb(0, 255, 0);&quot;&gt;True&lt;/font&gt;&lt;/b&gt;" style="text;html=1;align=center;verticalAlign=middle;resizable=0;points=[];autosize=1;strokeColor=none;fillColor=none;" parent="1" vertex="1">
          <mxGeometry x="296" y="783" width="50" height="30" as="geometry" />
        </mxCell>
        <mxCell id="BklmUbB21pq4jj8lP8_X-83" value="&lt;b&gt;&lt;font style=&quot;color: rgb(255, 0, 0);&quot;&gt;false&lt;/font&gt;&lt;/b&gt;" style="text;html=1;align=center;verticalAlign=middle;resizable=0;points=[];autosize=1;strokeColor=none;fillColor=none;" parent="1" vertex="1">
          <mxGeometry x="425" y="718" width="50" height="30" as="geometry" />
        </mxCell>
        <mxCell id="BklmUbB21pq4jj8lP8_X-84" value="&lt;b&gt;&lt;font style=&quot;color: rgb(0, 255, 0);&quot;&gt;true&lt;/font&gt;&lt;/b&gt;" style="text;html=1;align=center;verticalAlign=middle;resizable=0;points=[];autosize=1;strokeColor=none;fillColor=none;" parent="1" vertex="1">
          <mxGeometry x="375" y="318" width="50" height="30" as="geometry" />
        </mxCell>
        <mxCell id="BklmUbB21pq4jj8lP8_X-85" value="&lt;b&gt;&lt;font style=&quot;color: rgb(255, 0, 0);&quot;&gt;false&lt;/font&gt;&lt;/b&gt;" style="text;html=1;align=center;verticalAlign=middle;resizable=0;points=[];autosize=1;strokeColor=none;fillColor=none;" parent="1" vertex="1">
          <mxGeometry x="445" y="238" width="50" height="30" as="geometry" />
        </mxCell>
        <mxCell id="BklmUbB21pq4jj8lP8_X-86" value="&lt;b&gt;&lt;font style=&quot;color: rgb(0, 255, 0);&quot;&gt;true&lt;/font&gt;&lt;/b&gt;" style="text;html=1;align=center;verticalAlign=middle;resizable=0;points=[];autosize=1;strokeColor=none;fillColor=none;" parent="1" vertex="1">
          <mxGeometry x="525" y="1088" width="50" height="30" as="geometry" />
        </mxCell>
        <mxCell id="BklmUbB21pq4jj8lP8_X-87" value="&lt;b&gt;&lt;font style=&quot;color: rgb(255, 0, 0);&quot;&gt;false&lt;/font&gt;&lt;/b&gt;" style="text;html=1;align=center;verticalAlign=middle;resizable=0;points=[];autosize=1;strokeColor=none;fillColor=none;" parent="1" vertex="1">
          <mxGeometry x="705" y="1028" width="50" height="30" as="geometry" />
        </mxCell>
        <mxCell id="BklmUbB21pq4jj8lP8_X-88" value="&lt;b&gt;&lt;font style=&quot;color: rgb(0, 255, 0);&quot;&gt;true&lt;/font&gt;&lt;/b&gt;" style="text;html=1;align=center;verticalAlign=middle;resizable=0;points=[];autosize=1;strokeColor=none;fillColor=none;" parent="1" vertex="1">
          <mxGeometry x="825" y="1178" width="50" height="30" as="geometry" />
        </mxCell>
        <mxCell id="BklmUbB21pq4jj8lP8_X-89" value="&lt;b&gt;&lt;font style=&quot;color: rgb(255, 0, 0);&quot;&gt;false&lt;/font&gt;&lt;/b&gt;" style="text;html=1;align=center;verticalAlign=middle;resizable=0;points=[];autosize=1;strokeColor=none;fillColor=none;" parent="1" vertex="1">
          <mxGeometry x="945" y="1108" width="50" height="30" as="geometry" />
        </mxCell>
        <mxCell id="BklmUbB21pq4jj8lP8_X-90" value="&lt;b&gt;&lt;font style=&quot;color: rgb(0, 255, 0);&quot;&gt;true&lt;/font&gt;&lt;/b&gt;" style="text;html=1;align=center;verticalAlign=middle;resizable=0;points=[];autosize=1;strokeColor=none;fillColor=none;" parent="1" vertex="1">
          <mxGeometry x="545" y="1828" width="50" height="30" as="geometry" />
        </mxCell>
        <mxCell id="BklmUbB21pq4jj8lP8_X-91" value="&lt;b&gt;&lt;font style=&quot;color: rgb(255, 0, 0);&quot;&gt;false&lt;/font&gt;&lt;/b&gt;" style="text;html=1;align=center;verticalAlign=middle;resizable=0;points=[];autosize=1;strokeColor=none;fillColor=none;" parent="1" vertex="1">
          <mxGeometry x="715" y="1718" width="50" height="30" as="geometry" />
        </mxCell>
        <mxCell id="BklmUbB21pq4jj8lP8_X-92" value="&lt;b&gt;&lt;font style=&quot;color: rgb(0, 255, 0);&quot;&gt;true&lt;/font&gt;&lt;/b&gt;" style="text;html=1;align=center;verticalAlign=middle;resizable=0;points=[];autosize=1;strokeColor=none;fillColor=none;" parent="1" vertex="1">
          <mxGeometry x="565" y="1568" width="50" height="30" as="geometry" />
        </mxCell>
        <mxCell id="BklmUbB21pq4jj8lP8_X-93" value="&lt;b&gt;&lt;font style=&quot;color: rgb(255, 0, 0);&quot;&gt;false&lt;/font&gt;&lt;/b&gt;" style="text;html=1;align=center;verticalAlign=middle;resizable=0;points=[];autosize=1;strokeColor=none;fillColor=none;" parent="1" vertex="1">
          <mxGeometry x="725" y="1468" width="50" height="30" as="geometry" />
        </mxCell>
        <mxCell id="BklmUbB21pq4jj8lP8_X-94" value="&lt;b&gt;&lt;font style=&quot;color: rgb(0, 255, 0);&quot;&gt;true&lt;/font&gt;&lt;/b&gt;" style="text;html=1;align=center;verticalAlign=middle;resizable=0;points=[];autosize=1;strokeColor=none;fillColor=none;" parent="1" vertex="1">
          <mxGeometry x="1035" y="1818" width="50" height="30" as="geometry" />
        </mxCell>
        <mxCell id="BklmUbB21pq4jj8lP8_X-95" value="" style="endArrow=none;html=1;rounded=0;exitX=1;exitY=0.5;exitDx=0;exitDy=0;" parent="1" source="BklmUbB21pq4jj8lP8_X-44" edge="1">
          <mxGeometry width="50" height="50" relative="1" as="geometry">
            <mxPoint x="1216" y="1798" as="sourcePoint" />
            <mxPoint x="1240" y="1770" as="targetPoint" />
          </mxGeometry>
        </mxCell>
        <mxCell id="BklmUbB21pq4jj8lP8_X-96" value="" style="endArrow=none;html=1;rounded=0;" parent="1" edge="1">
          <mxGeometry width="50" height="50" relative="1" as="geometry">
            <mxPoint x="1240" y="2090" as="sourcePoint" />
            <mxPoint x="1240" y="1768.1818181818182" as="targetPoint" />
          </mxGeometry>
        </mxCell>
        <mxCell id="BklmUbB21pq4jj8lP8_X-99" value="" style="edgeStyle=orthogonalEdgeStyle;rounded=0;orthogonalLoop=1;jettySize=auto;html=1;exitX=0.5;exitY=1;exitDx=0;exitDy=0;entryX=0.5;entryY=0;entryDx=0;entryDy=0;" parent="1" source="BklmUbB21pq4jj8lP8_X-47" target="BklmUbB21pq4jj8lP8_X-98" edge="1">
          <mxGeometry relative="1" as="geometry">
            <mxPoint x="1113" y="2710" as="targetPoint" />
            <mxPoint x="1113" y="2020" as="sourcePoint" />
          </mxGeometry>
        </mxCell>
        <mxCell id="BklmUbB21pq4jj8lP8_X-98" value="" style="ellipse;whiteSpace=wrap;html=1;aspect=fixed;" parent="1" vertex="1">
          <mxGeometry x="1102.5" y="2080" width="20" height="20" as="geometry" />
        </mxCell>
        <mxCell id="BklmUbB21pq4jj8lP8_X-100" value="" style="endArrow=classic;html=1;rounded=0;entryX=1;entryY=0.5;entryDx=0;entryDy=0;" parent="1" target="BklmUbB21pq4jj8lP8_X-98" edge="1">
          <mxGeometry width="50" height="50" relative="1" as="geometry">
            <mxPoint x="1240" y="2090" as="sourcePoint" />
            <mxPoint x="1140" y="2110" as="targetPoint" />
          </mxGeometry>
        </mxCell>
        <mxCell id="BklmUbB21pq4jj8lP8_X-101" value="&lt;b&gt;&lt;font style=&quot;color: rgb(255, 0, 0);&quot;&gt;false&lt;/font&gt;&lt;/b&gt;" style="text;html=1;align=center;verticalAlign=middle;resizable=0;points=[];autosize=1;strokeColor=none;fillColor=none;" parent="1" vertex="1">
          <mxGeometry x="1185" y="1728" width="50" height="30" as="geometry" />
        </mxCell>
        <mxCell id="0oQbfdD1zlZAHQCakIF--1" value="&lt;b&gt;&lt;font style=&quot;color: rgb(0, 255, 0);&quot;&gt;true&lt;/font&gt;&lt;/b&gt;" style="text;html=1;align=center;verticalAlign=middle;resizable=0;points=[];autosize=1;strokeColor=none;fillColor=none;fontSize=16;" vertex="1" parent="1">
          <mxGeometry x="529" y="1951" width="50" height="30" as="geometry" />
        </mxCell>
        <mxCell id="0oQbfdD1zlZAHQCakIF--2" value="&lt;b&gt;&lt;font style=&quot;color: rgb(204, 0, 0);&quot;&gt;false&lt;/font&gt;&lt;/b&gt;" style="text;html=1;align=center;verticalAlign=middle;resizable=0;points=[];autosize=1;strokeColor=none;fillColor=none;fontSize=16;" vertex="1" parent="1">
          <mxGeometry x="764" y="1891" width="60" height="30" as="geometry" />
        </mxCell>
        <mxCell id="0oQbfdD1zlZAHQCakIF--3" value="&lt;b&gt;&lt;font style=&quot;color: rgb(0, 255, 0);&quot;&gt;true&lt;/font&gt;&lt;/b&gt;" style="text;html=1;align=center;verticalAlign=middle;resizable=0;points=[];autosize=1;strokeColor=none;fillColor=none;fontSize=16;" vertex="1" parent="1">
          <mxGeometry x="779" y="2091" width="50" height="30" as="geometry" />
        </mxCell>
        <mxCell id="0oQbfdD1zlZAHQCakIF--4" value="" style="endArrow=none;html=1;rounded=0;fontSize=12;startSize=8;endSize=8;curved=1;exitX=1;exitY=0.5;exitDx=0;exitDy=0;" edge="1" parent="1" source="BklmUbB21pq4jj8lP8_X-7">
          <mxGeometry width="50" height="50" relative="1" as="geometry">
            <mxPoint x="995" y="2115" as="sourcePoint" />
            <mxPoint x="1030" y="2060" as="targetPoint" />
          </mxGeometry>
        </mxCell>
        <mxCell id="0oQbfdD1zlZAHQCakIF--8" value="" style="endArrow=none;html=1;rounded=0;fontSize=12;startSize=8;endSize=8;curved=1;" edge="1" parent="1">
          <mxGeometry width="50" height="50" relative="1" as="geometry">
            <mxPoint x="1030" y="2420" as="sourcePoint" />
            <mxPoint x="1030" y="2060" as="targetPoint" />
          </mxGeometry>
        </mxCell>
        <mxCell id="0oQbfdD1zlZAHQCakIF--9" value="" style="ellipse;whiteSpace=wrap;html=1;aspect=fixed;" vertex="1" parent="1">
          <mxGeometry x="858.5" y="2410" width="20" height="20" as="geometry" />
        </mxCell>
        <mxCell id="0oQbfdD1zlZAHQCakIF--10" value="" style="endArrow=classic;html=1;rounded=0;fontSize=12;startSize=8;endSize=8;curved=1;entryX=1;entryY=0.5;entryDx=0;entryDy=0;" edge="1" parent="1" target="0oQbfdD1zlZAHQCakIF--9">
          <mxGeometry width="50" height="50" relative="1" as="geometry">
            <mxPoint x="1030" y="2420" as="sourcePoint" />
            <mxPoint x="910" y="2420" as="targetPoint" />
          </mxGeometry>
        </mxCell>
        <mxCell id="0oQbfdD1zlZAHQCakIF--11" value="" style="endArrow=none;html=1;rounded=0;fontSize=12;startSize=8;endSize=8;curved=1;entryX=0.5;entryY=1;entryDx=0;entryDy=0;" edge="1" parent="1" target="0oQbfdD1zlZAHQCakIF--9">
          <mxGeometry width="50" height="50" relative="1" as="geometry">
            <mxPoint x="869" y="2490" as="sourcePoint" />
            <mxPoint x="910" y="2420" as="targetPoint" />
          </mxGeometry>
        </mxCell>
        <mxCell id="0oQbfdD1zlZAHQCakIF--12" value="&lt;b&gt;&lt;font style=&quot;color: rgb(255, 0, 0);&quot;&gt;false&lt;/font&gt;&lt;/b&gt;" style="text;html=1;align=center;verticalAlign=middle;resizable=0;points=[];autosize=1;strokeColor=none;fillColor=none;fontSize=16;" vertex="1" parent="1">
          <mxGeometry x="934" y="2011" width="60" height="30" as="geometry" />
        </mxCell>
      </root>
    </mxGraphModel>
  </diagram>
</mxfile>
